/* XPM */
static char *_f35f2a75fea405b98882c2b9b983006Y0XHHOLgd7yRWePC[] = {
/* columns rows colors chars-per-pixel */
"16 16 3 1 ",
"  c black",
". c #008088",
"X c #00E8D8",
/* pixels */
".XXXXXXXXXXXXXX.",
"X.............. ",
"X.............. ",
"X.............. ",
"X.............. ",
"X.............. ",
"X.............. ",
"X.............. ",
"X.............. ",
"X.............. ",
"X.............. ",
"X.............. ",
"X.............. ",
"X.............. ",
"X.............. ",
".              ."
};
