/* XPM */
static char *_3aaf22f8a8d4c0ee99753fa60833387UnTDHWmcgHjgI8Ds[] = {
/* columns rows colors chars-per-pixel */
"16 16 3 1 ",
"  c black",
". c #183C5C",
"X c #00E8D8",
/* pixels */
"                ",
"........ .......",
"....... ........",
"......X XX......",
".....X.. .X.....",
"....X... ..X....",
"...X... ....X...",
"..X.... .....X..",
"..X..... ....X..",
"...X.... ...X...",
"....X.. ...X....",
".....X. ..X.....",
"......XX X......",
"........ .......",
"....... ........",
"                "
};
