/* XPM */
static char *_f734f4667444c82ca02254560ed19fcCcRVzYouuup6QQwn[] = {
/* columns rows colors chars-per-pixel */
"16 16 4 1 ",
"  c None",
". c #C84C0C",
"X c #FC9838",
"o c #80D010",
/* pixels */
"       oooo     ",
"    ....ooooo   ",
"   ......ooXooo ",
"    ......XXoooo",
" .  XoXX.XXXoo o",
" .XXX.XX.XX..o  ",
" .  XXXXXX...   ",
" .  XXXXoooo    ",
" .X...ooooooo.  ",
" .X..oooXXXo... ",
" . ..oooXXX.... ",
" .   .oooXX.... ",
" .   ....oo..o  ",
"     oooooooooo ",
"        ....    ",
"       .....    "
};
