/* XPM */
static char *_385a936e16e40b6877737fcba8f22f9OYRkDXQmdaGxCLNs[] = {
/* columns rows colors chars-per-pixel */
"16 16 4 1 ",
"  c None",
". c #C84C0C",
"X c #FC9838",
"o c #80D010",
/* pixels */
"     oooooo     ",
"    oooooooo    ",
"  X oooooooo X  ",
"  XooooooooooX  ",
"  X.oooooooo.X  ",
"  XX..oooo..XX  ",
"   X...oo...X   ",
"   .o......o.   ",
"   ..ooooooo..  ",
"  X..ooooooo..  ",
"  X..oooooo..   ",
"  XXo......oo   ",
"   oooooooooo   ",
"    .ooooo...   ",
"     ..  ....   ",
"          ..    "
};
