/* XPM */
static char *a0983e9718a043d68d0bb9573570990f9DpTrA5Z0H7b8lSL[] = {
/* columns rows colors chars-per-pixel */
"16 16 4 1 ",
"  c None",
". c #C84C0C",
"X c #FC9838",
"o c #80D010",
/* pixels */
"     oooooo     ",
"    oooooooo    ",
"  X o......o X  ",
"  X ........ X  ",
"  XX.XoXXoX.XX  ",
"  XX.X.XX.X.XX  ",
"   XXXXXXXXXX.  ",
"    oXX..XXo..  ",
"  .....XXXoooX  ",
" ..X....oooooX  ",
" .XXX..X..oo.   ",
" ..X...Xo...o   ",
" ..X...X..ooo   ",
" ......Xooo.    ",
"  XXXXX  ...    ",
"         ...    "
};
