/* XPM */
static char *_cf4b9f509bd4ecee739df49359f03a0N2thfwxFnHLSCGKu[] = {
/* columns rows colors chars-per-pixel */
"16 16 4 1 ",
"  c None",
". c #C84C0C",
"X c #FC9838",
"o c #80D010",
/* pixels */
"     oooo       ",
"   ooooo....    ",
" oooXoo......   ",
"ooooXX......    ",
"o ooXXX.XXoX  . ",
"  o..XX.XX.XXX. ",
"   ...XXXXXX  . ",
"    ooooXXXX  . ",
"  .ooooooo...X. ",
" ...oXXXooo..X. ",
" ....XXXooo.. . ",
" ....XXooo.   . ",
"  o..oo....   . ",
" oooooooooo     ",
"    ....        ",
"    .....       "
};
