/* XPM */
static char *_bfb0f6fbc2f4a89d57a943edaa7a789wBb5aY3FirP5bLJT[] = {
/* columns rows colors chars-per-pixel */
"16 16 4 1 ",
"  c None",
". c #C84C0C",
"X c #FC9838",
"o c #80D010",
/* pixels */
"                ",
"     oooo       ",
"   ooooo....    ",
" oooXoo......   ",
"ooooXX......    ",
"o ooXXX.XXoX    ",
"  o..XX.XX.XXX  ",
"   ...XXXXXX .  ",
"    ooooXXXX .  ",
"  o..ooXXX..X.  ",
"  .....XXXo.X.  ",
" o.....XXoo. .  ",
" oo....ooo.  .  ",
"..ooooo....o .  ",
"...oooooooo..   ",
" ...     ...    "
};
